<svg width="129" height="83" viewBox="0 0 129 83" fill="none" xmlns="http://www.w3.org/2000/svg">
  <path
    d="M41.293 59.6859H43.2242V65.0984H49.1216V59.6859H51.0528V72.5513H49.1216V66.9356H43.2242V72.5513H41.293V59.6859Z"
    fill="#FF8500" />
  <path
    d="M61.6269 69.8978C61.0374 71.4294 59.7977 72.6553 57.6625 72.6553C55.2229 72.6553 53.29 70.7156 53.29 67.9582C53.29 65.2008 55.2022 63.2611 57.5605 63.2611C59.9188 63.2611 61.8309 65.2008 61.8309 67.9582C61.8309 68.1822 61.7911 68.3871 61.7704 68.5295L61.7305 68.7744H55.2245C55.3265 69.9187 56.3431 70.9189 57.6641 70.9189C58.7826 70.9189 59.3929 70.3059 59.6973 69.8978H61.6285H61.6269ZM60.102 67.2428C59.8789 65.9161 59.0041 64.9959 57.5605 64.9959C56.3399 64.9959 55.446 65.9145 55.2229 67.2428H60.1036H60.102Z"
    fill="#FF8500" />
  <path d="M63.8623 59.6859H65.6916V72.5513H63.8623V59.6859Z" fill="#FF8500" />
  <path d="M68.3369 59.6859H70.1662V72.5513H68.3369V59.6859Z" fill="#FF8500" />
  <path
    d="M78.0966 71.6343C77.9134 71.8183 77.711 72.0023 77.4656 72.1448C77.0386 72.4104 76.3677 72.6553 75.4531 72.6553C73.4199 72.6553 72.3013 71.5318 72.3013 69.8978C72.3013 68.0606 73.5219 66.8347 77.9947 66.8347V66.5291C77.9947 65.6105 77.4051 64.9975 76.2658 64.9975C75.0452 64.9975 74.5369 65.4872 74.4365 66.121H72.6072C72.7092 64.487 74.011 63.2611 76.2674 63.2611C78.4026 63.2611 79.8255 64.6902 79.8255 66.5291V72.5529H78.5046L78.0982 71.6343H78.0966ZM77.9947 68.4687C74.7408 68.4687 74.1306 69.0817 74.1306 70.0003C74.1306 70.5108 74.6389 71.0213 75.5535 71.0213C77.0991 71.0213 77.9931 70.1027 77.9931 68.9584V68.4687H77.9947Z"
    fill="#FF8500" />
  <path
    d="M83.4844 69.5922C83.5864 70.4084 84.074 70.9189 85.1113 70.9189C86.2506 70.9189 86.7382 70.4292 86.7382 69.7954C86.7382 68.1615 81.8575 69.2641 81.8575 66.017C81.8575 64.4854 83.0781 63.2595 85.0093 63.2595C87.1446 63.2595 88.2632 64.383 88.3651 66.1194H86.5359C86.4339 65.4856 85.9256 64.9959 85.0109 64.9959C84.0963 64.9959 83.588 65.5064 83.588 66.017C83.588 67.6509 88.4687 66.5483 88.4687 69.7954C88.4687 71.4294 87.2481 72.6553 85.1129 72.6553C82.8566 72.6553 81.7571 71.5526 81.6567 69.5922H83.486H83.4844Z"
    fill="#FF8500" />
  <path
    d="M127.104 23.7127C126.262 21.8531 125.102 20.2303 123.625 18.8396C122.148 17.4504 120.456 16.3702 118.549 15.6004C116.641 14.8306 114.641 14.4449 112.548 14.4449C110.454 14.4449 108.452 14.8306 106.547 15.6004C104.639 16.3702 102.947 17.4504 101.47 18.8396C99.9929 20.2287 98.8328 21.8531 97.9915 23.7127C97.1502 25.5723 96.7295 27.5536 96.7295 29.6565C96.7295 29.6805 96.7311 29.7045 96.7311 29.7301H96.7295V54.1054L103.46 53.2428V42.0674C104.418 42.7187 105.444 43.2692 106.545 43.7141C108.452 44.4839 110.452 44.8696 112.546 44.8696C114.64 44.8696 116.641 44.4839 118.547 43.7141C120.454 42.9444 122.145 41.8641 123.624 40.475C125.101 39.0859 126.261 37.4615 127.102 35.6019C127.944 33.7422 128.364 31.7626 128.364 29.6581C128.364 27.5552 127.944 25.5739 127.102 23.7143L127.104 23.7127ZM120.905 33.0349C120.419 34.0863 119.745 35.0161 118.886 35.8227C118.026 36.6309 117.054 37.2502 115.97 37.6823C114.885 38.1144 113.746 38.3305 112.549 38.3305C111.353 38.3305 110.212 38.1144 109.128 37.6823C108.043 37.2502 107.071 36.6309 106.212 35.8227C105.352 35.0161 104.678 34.0863 104.193 33.0349C103.707 31.9834 103.463 30.8568 103.463 29.6549C103.463 28.453 103.706 27.3263 104.193 26.2749C104.679 25.2234 105.352 24.2936 106.212 23.4854C107.073 22.6789 108.043 22.0579 109.128 21.6258C110.212 21.1937 111.353 20.9777 112.549 20.9777C113.746 20.9777 114.885 21.1937 115.97 21.6258C117.054 22.0579 118.026 22.6773 118.886 23.4854C119.747 24.2936 120.419 25.2234 120.905 26.2749C121.391 27.3263 121.635 28.453 121.635 29.6549C121.635 30.8568 121.391 31.9834 120.905 33.0349Z"
    fill="#FF8500" />
  <path
    d="M87.0714 10.6105V30.1302C87.0714 30.6183 87.0252 31.0953 86.9408 31.5594C86.5026 35.3266 83.1579 38.2585 79.0947 38.2585C74.7334 38.2585 71.1991 34.8833 71.1991 30.7208C71.1991 30.668 71.2023 30.6167 71.2039 30.5655C71.1959 30.4215 71.1912 30.2775 71.1912 30.1318V9.46143L64.4604 10.6121V30.1318C64.4604 38.2697 71.0286 44.8665 79.1313 44.8665C87.234 44.8665 93.8022 38.2697 93.8022 30.1318V9.46143L87.0714 10.6121V10.6105Z"
    fill="#FF8500" />
  <path
    d="M55.4605 29.6293C55.4605 38.0521 48.3919 44.9049 39.7029 44.9049C36.6307 44.9049 33.6542 44.0471 31.0919 42.4243C29.2148 41.2352 26.882 41.2352 25.0033 42.4243C22.4411 44.0471 19.4645 44.9049 16.3924 44.9049C7.70329 44.9049 0.634766 38.0521 0.634766 29.6293C0.634766 21.2065 7.70329 14.3538 16.3924 14.3538C19.4645 14.3538 22.4411 15.2116 25.0033 16.8343C26.8804 18.0234 29.2132 18.0234 31.0919 16.8343C33.6542 15.2116 36.6307 14.3538 39.7029 14.3538C48.3919 14.3538 55.4605 21.2065 55.4605 29.6293ZM48.8636 29.6293C48.8636 24.8586 44.7541 20.9793 39.7029 20.9793C37.8784 20.9793 36.1192 21.4834 34.6118 22.4388C30.5629 25.0042 25.5324 25.0042 21.485 22.4388C19.9792 21.485 18.2184 20.9793 16.3939 20.9793C11.3427 20.9793 7.23323 24.8602 7.23323 29.6293C7.23323 34.3984 11.3427 38.2793 16.3939 38.2793C18.2184 38.2793 19.9776 37.7752 21.485 36.8198C25.534 34.2544 30.5645 34.2544 34.6118 36.8198C36.1176 37.7736 37.8784 38.2793 39.7029 38.2793C44.7541 38.2793 48.8636 34.3984 48.8636 29.6293Z"
    fill="#FF8500" />
</svg>